<svg width="128" height="47" viewBox="0 0 128 47" fill="none" xmlns="http://www.w3.org/2000/svg">
<g clip-path="url(#clip0)">
<path d="M62.7645 10.3967V45.9362H81.571V34.8778H74.0982V7.36408L62.7645 10.3967Z" fill="#F1FAEE"/>
<path d="M17.9362 22.4008L14.1199 33.4481L10.7231 24.3345L0 27.2074L7.74594 45.9361H19.8455L30.4687 19.044L17.9362 22.4008Z" fill="#F1FAEE"/>
<path d="M60.3246 29.6894C60.0277 26.703 58.8706 23.8668 56.9937 21.525C55.1167 19.1832 52.6005 17.4364 49.7504 16.4964C46.9002 15.5564 43.8385 15.4636 40.9367 16.2294C38.0348 16.9951 35.4175 18.5864 33.4022 20.8103C31.3869 23.0342 30.0603 25.7951 29.5831 28.7581C29.106 31.7211 29.4989 34.7589 30.7141 37.503C31.9294 40.2471 33.9149 42.5796 36.4296 44.2176C38.9444 45.8556 41.8804 46.7287 44.8816 46.7309C45.4006 46.7317 45.9193 46.7058 46.4357 46.6532C50.5262 46.242 54.2866 44.225 56.892 41.0449C59.4974 37.8647 60.7351 33.7809 60.3335 29.6894H60.3246ZM44.8927 36.6739C43.8147 36.6739 42.761 36.3542 41.8647 35.7553C40.9683 35.1564 40.2698 34.3052 39.8572 33.3093C39.4447 32.3134 39.3368 31.2175 39.5471 30.1602C39.7574 29.1029 40.2765 28.1318 41.0387 27.3695C41.801 26.6073 42.7721 26.0882 43.8294 25.8779C44.8867 25.6676 45.9825 25.7755 46.9785 26.1881C47.9744 26.6006 48.8256 27.2992 49.4245 28.1955C50.0234 29.0918 50.3431 30.1455 50.3431 31.2235C50.3431 31.9393 50.2021 32.648 49.9282 33.3093C49.6543 33.9706 49.2528 34.5714 48.7467 35.0775C48.2406 35.5836 47.6397 35.9851 46.9785 36.259C46.3172 36.5329 45.6085 36.6739 44.8927 36.6739V36.6739Z" fill="#F1FAEE"/>
<path d="M127.878 21.0532C127.43 16.5538 125.686 12.2809 122.858 8.75286C120.03 5.22484 116.239 2.59326 111.945 1.17732C107.65 -0.238613 103.038 -0.378063 98.6656 0.775888C94.2937 1.92984 90.3505 4.32761 87.3143 7.67835C84.2782 11.0291 82.2796 15.1889 81.5609 19.6531C80.8423 24.1173 81.4344 28.6941 83.2655 32.8284C85.0967 36.9627 88.0881 40.4768 91.877 42.9446C95.6659 45.4123 100.089 46.7276 104.611 46.7309C105.381 46.7309 106.157 46.6925 106.94 46.6155C113.104 45.9955 118.769 42.956 122.695 38.1638C126.62 33.3716 128.484 27.2181 127.878 21.0532V21.0532ZM104.633 33.8144C102.566 33.8148 100.546 33.2023 98.827 32.0543C97.1082 30.9063 95.7685 29.2744 94.9772 27.365C94.1859 25.4555 93.9787 23.3543 94.3817 21.327C94.7846 19.2998 95.7797 17.4375 97.2411 15.9759C98.7025 14.5142 100.564 13.5187 102.592 13.1153C104.619 12.7119 106.72 12.9187 108.63 13.7096C110.539 14.5005 112.172 15.8399 113.32 17.5584C114.468 19.277 115.081 21.2974 115.081 23.3644C115.081 24.7366 114.811 26.0954 114.287 27.3632C113.762 28.6311 112.992 29.7831 112.022 30.7535C111.052 31.7239 109.9 32.4937 108.632 33.0189C107.364 33.5441 106.006 33.8144 104.633 33.8144V33.8144Z" fill="#F1FAEE"/>
</g>
<defs>
<clipPath id="clip0">
<rect width="128" height="46.7309" fill="white"/>
</clipPath>
</defs>
</svg>
