<svg width="128" height="68" viewBox="0 0 128 68" fill="none" xmlns="http://www.w3.org/2000/svg">
<g clip-path="url(#clip0)">
<path d="M41.8691 44.5805H35.8878V66.0463H41.8691V44.5805Z" fill="#00BCEE"/>
<path d="M87.3271 51.239C87.1042 51.1235 85.3225 50.0706 82.672 50.0706C79.0823 50.0706 76.5985 52.556 76.5985 55.9071C76.5985 59.1585 78.9787 61.7488 82.672 61.7488C85.2769 61.7488 87.0884 60.7186 87.3271 60.5874V66.4606C86.639 66.6547 84.7485 67.2389 82.2735 67.2389C76.0438 67.2389 70.5795 62.9573 70.5795 55.9071C70.5795 49.3728 75.5295 44.5805 82.2735 44.5805C84.8819 44.5805 86.8058 45.2119 87.3271 45.3658V51.239Z" fill="#00BCEE"/>
<path d="M28.7103 51.239C28.4874 51.1235 26.7057 50.0706 24.0552 50.0706C20.4655 50.0706 17.9817 52.556 17.9817 55.9071C17.9817 59.1585 20.3619 61.7488 24.0552 61.7488C26.6601 61.7488 28.4716 60.7186 28.7103 60.5874V66.4606C28.0222 66.6547 26.1317 67.2389 23.6567 67.2389C17.427 67.2389 11.9626 62.9573 11.9626 55.9071C11.9626 49.3728 16.9127 44.5805 23.6567 44.5805C26.2651 44.5805 28.189 45.2119 28.7103 45.3658V51.239Z" fill="#00BCEE"/>
<path d="M105.267 50.1528C101.877 50.1528 99.3595 52.7309 99.3595 55.9071C99.3595 59.0903 101.877 61.6666 105.267 61.6666C108.654 61.6666 111.179 59.0903 111.179 55.9071C111.179 52.7309 108.654 50.1528 105.267 50.1528ZM117.234 55.9071C117.234 62.1668 112.233 67.2389 105.267 67.2389C98.3024 67.2389 93.3085 62.1668 93.3085 55.9071C93.3085 49.6579 98.3024 44.5805 105.267 44.5805C112.233 44.5805 117.234 49.6579 117.234 55.9071Z" fill="#00BCEE"/>
<path d="M63.0104 49.9466C62.9255 49.9203 60.5276 49.2786 58.5573 49.2786C56.2748 49.2786 55.0335 50.02 55.0335 51.0708C55.0335 52.4032 56.7079 52.8682 57.6443 53.155L59.2159 53.6393C62.9129 54.7793 64.5981 57.2324 64.5981 59.8971C64.5981 65.3925 59.611 67.2389 55.2518 67.2389C52.2223 67.2389 49.3842 66.6986 49.1045 66.6409V61.6071C49.6061 61.7295 51.995 62.4201 54.4832 62.4201C57.3177 62.4201 58.6205 61.6176 58.6205 60.3779C58.6205 59.2694 57.4928 58.6294 56.08 58.1993C55.7354 58.0874 55.2175 57.9301 54.8639 57.8182C51.6919 56.846 49.0468 55.0398 49.0468 51.4188C49.0468 47.3273 52.2079 44.5805 57.4585 44.5805C60.2317 44.5805 62.8407 45.2327 63.0104 45.2764V49.9466Z" fill="#00BCEE"/>
<path d="M5.98131 20.9574C5.98131 19.5145 4.63814 18.3445 2.99161 18.3445C1.34508 18.3445 0 19.5145 0 20.9574V26.4544C0 27.9057 1.34508 29.0774 2.99161 29.0774C4.63814 29.0774 5.98131 27.9057 5.98131 26.4544V20.9574Z" fill="#00BCEE"/>
<path d="M21.5327 13.9702C21.5327 12.4365 20.1895 11.1892 18.543 11.1892C16.8946 11.1892 15.5514 12.4365 15.5514 13.9702V27.4836C15.5514 29.0263 16.8946 30.27 18.543 30.27C20.1895 30.27 21.5327 29.0263 21.5327 27.4836V13.9702Z" fill="#00BCEE"/>
<path d="M37.0841 3.1926C37.0841 1.68255 35.7409 0.456299 34.0944 0.456299C32.446 0.456299 31.1028 1.68255 31.1028 3.1926V32.2951C31.1028 33.8139 32.446 35.0402 34.0944 35.0402C35.7409 35.0402 37.0841 33.8139 37.0841 32.2951V3.1926Z" fill="#00BCEE"/>
<path d="M51.4393 13.9702C51.4393 12.4365 50.0961 11.1892 48.4496 11.1892C46.8011 11.1892 45.4579 12.4365 45.4579 13.9702V27.4836C45.4579 29.0263 46.8011 30.27 48.4496 30.27C50.0961 30.27 51.4393 29.0263 51.4393 27.4836V13.9702Z" fill="#00BCEE"/>
<path d="M66.9906 20.9574C66.9906 19.5145 65.6527 18.3445 64.0086 18.3445C62.3568 18.3445 61.0093 19.5145 61.0093 20.9574V26.4544C61.0093 27.9057 62.3568 29.0774 64.0086 29.0774C65.6527 29.0774 66.9906 27.9057 66.9906 26.4544V20.9574Z" fill="#00BCEE"/>
<path d="M66.9906 20.9574C66.9906 19.5145 65.6475 18.3445 64.0009 18.3445C62.3544 18.3445 61.0093 19.5145 61.0093 20.9574V26.4544C61.0093 27.9057 62.3544 29.0774 64.0009 29.0774C65.6475 29.0774 66.9906 27.9057 66.9906 26.4544V20.9574Z" fill="#00BCEE"/>
<path d="M82.5421 13.9702C82.5421 12.4365 81.1989 11.1892 79.5524 11.1892C77.904 11.1892 76.5608 12.4365 76.5608 13.9702V27.4836C76.5608 29.0263 77.904 30.27 79.5524 30.27C81.1989 30.27 82.5421 29.0263 82.5421 27.4836V13.9702Z" fill="#00BCEE"/>
<path d="M98.0935 3.1926C98.0935 1.68255 96.7503 0.456299 95.1038 0.456299C93.4554 0.456299 92.1122 1.68255 92.1122 3.1926V32.2951C92.1122 33.8139 93.4554 35.0402 95.1038 35.0402C96.7503 35.0402 98.0935 33.8139 98.0935 32.2951V3.1926Z" fill="#00BCEE"/>
<path d="M113.645 13.9702C113.645 12.4365 112.302 11.1892 110.655 11.1892C109.007 11.1892 107.664 12.4365 107.664 13.9702V27.4836C107.664 29.0263 109.007 30.27 110.655 30.27C112.302 30.27 113.645 29.0263 113.645 27.4836V13.9702Z" fill="#00BCEE"/>
<path d="M128 20.9574C128 19.5145 126.662 18.3445 125.018 18.3445C123.366 18.3445 122.019 19.5145 122.019 20.9574V26.4544C122.019 27.9057 123.366 29.0774 125.018 29.0774C126.662 29.0774 128 27.9057 128 26.4544V20.9574Z" fill="#00BCEE"/>
</g>
<defs>
<clipPath id="clip0">
<rect width="128" height="66.7826" fill="white" transform="translate(0 0.456299)"/>
</clipPath>
</defs>
</svg>
