<svg width="128" height="51" viewBox="0 0 128 51" fill="none" xmlns="http://www.w3.org/2000/svg">
<g clip-path="url(#clip0)">
<path d="M0.636841 0.784698V39.3757C5.09455 38.93 9.61595 38.7389 14.1373 38.8026C18.9135 38.8026 24.9632 38.9937 32.1592 39.5031C61.1344 41.5409 69.0946 45.6802 94.1214 46.3807C97.6876 46.4444 100.872 46.5081 103.737 46.5081C123.797 46.5081 128 43.9608 128 43.9608V0.784698H0.636841Z" fill="#F1FAEE"/>
<path d="M19.0408 12.6295L18.0856 6.64339H6.11346V28.9319H12.2269V20.7807H16.6846V14.7946H12.0995V12.6295H19.0408ZM21.3334 28.9319L22.2886 26.4484H29.5483L30.3762 28.9319H36.617L28.9752 6.70707H22.607L15.1563 28.9319H21.3334ZM25.7911 15.1767L27.8289 21.0354H23.8169C23.8169 21.0354 25.7911 15.1767 25.7911 15.1767ZM91.6378 12.6295L90.5553 6.70707H78.7742V28.9319H90.81L92.3383 22.6911H84.7602V20.8444H89.2179V14.7946H84.7602V12.6295H91.6378ZM66.2926 29.0593L70.814 20.3349L72.215 28.9319H78.3921L75.0806 6.70707H70.4319L66.2289 15.1767L61.8349 6.70707H57.3135L54.2568 28.9319H60.4339L61.6438 20.2712L66.2926 29.0593ZM118.703 12.12C119.658 12.12 120.549 12.3747 121.313 12.8205V7.66229C121.313 7.2802 119.594 6.70707 117.429 6.70707C113.29 6.70707 109.978 9.19065 109.914 13.2026C109.851 18.8703 115.009 19.5707 114.945 22.0543C114.945 23.0096 113.672 23.3916 112.78 23.4553C111.889 23.3916 111.061 23.2643 110.233 23.0732L110.551 28.7409C111.379 28.8683 112.271 28.9956 113.099 28.9956C117.365 28.8683 121.887 27.7857 121.887 22.3091C121.887 16.1319 116.665 16.514 116.601 13.712C116.665 12.5658 117.747 12.0563 118.703 12.12ZM52.7921 13.8394C52.7921 9.12697 49.3533 6.70707 45.214 6.70707H36.9354V28.9956H43.3035V20.526L47.5065 28.9956H54.1294L49.799 19.3797C49.799 19.316 52.7921 17.915 52.7921 13.8394ZM44.0677 17.1508H43.1762V11.8016H44.004C45.4687 11.8016 46.615 13.0115 46.615 14.4762C46.615 15.9409 45.4687 17.0872 44.0677 17.1508ZM108.959 13.8394C108.959 9.12697 105.52 6.70707 101.381 6.70707H93.1025V28.9956H99.4707V20.526L103.674 28.9956H110.297L105.966 19.3797C105.966 19.316 108.959 17.915 108.959 13.8394ZM100.171 17.1508H99.3433V11.8016H100.171C101.636 11.8016 102.782 13.0115 102.782 14.4762C102.846 15.9409 101.636 17.1508 100.171 17.1508Z" fill="#1D3557"/>
<path d="M88.199 31.8613H90.0457L90.4278 34.8543L91.8288 31.8613L93.2298 34.8543L93.6119 31.8613H95.4587L94.5034 39.0573H92.9751L91.7015 36.2553L90.4278 39.0573H89.1542L88.199 31.8613ZM96.2865 31.8613H100.107L100.362 33.7717H98.0696V34.5359H99.5343V36.4464H98.0696V37.2106H100.553L100.044 39.121H96.1592V31.8613H96.2865ZM101.254 31.8613H105.075L105.329 33.7717H103.164V34.5359H104.629V36.4464H103.164V37.2106H105.648L105.138 39.121H101.254V31.8613ZM106.221 31.8613H108.068V35.0454L109.532 31.8613H111.634L110.169 35.1727L111.761 38.9936H109.66L108.131 35.2364V38.9936H106.285L106.221 31.8613ZM112.334 31.8613H114.181V37.1469H116.665L116.155 39.0573H112.271L112.334 31.8613ZM116.155 31.8613H118.257L119.085 33.6444L119.912 31.8613H122.014L119.976 35.8732V39.0573H118.129V35.8732L116.155 31.8613Z" fill="#1D3557"/>
<path d="M32.0318 41.923C45.5323 42.8782 54.3204 44.2792 62.7264 45.6165C71.9602 47.0812 80.6846 48.4822 94.0577 48.8006C97.4965 48.8643 100.744 48.928 103.674 48.928C109.66 48.9917 115.646 48.7369 121.568 48.0364C126.79 47.0812 127.809 46.0623 127.936 45.8713C125.644 46.8902 119.339 48.2912 103.674 48.2912C100.681 48.2912 97.4328 48.2275 94.0577 48.1638C80.6846 47.7817 71.9602 46.4444 62.7264 44.9797C54.2567 43.6424 45.5323 42.2414 32.0318 41.2862C25.7273 40.8404 19.6776 40.5857 14.0736 40.5857C9.55222 40.522 5.09451 40.7131 0.57312 41.1588V41.8593C5.03083 41.4135 9.55222 41.2225 14.0736 41.2862C19.6776 41.2862 25.7273 41.4772 32.0318 41.923Z" fill="#F1FAEE"/>
<path d="M94.8856 49.3101C69.8587 49.6922 61.7075 45.8713 32.7324 45.1071C11.9722 44.5976 0.636841 45.6802 0.636841 45.6802V46.3807C0.636841 46.3807 11.9722 45.2981 32.7324 45.8076C61.7712 46.5718 69.8587 50.3927 94.8856 50.0106C124.434 49.5011 127.745 46.2534 127.936 45.8713C126.854 46.3807 124.943 46.8902 121.568 47.3359C116.919 48.2275 108.832 49.119 94.8856 49.3101Z" fill="#F1FAEE"/>
<path d="M94.0577 48.4822C80.6846 48.1001 71.9602 46.7628 62.7264 45.2981C54.2567 43.9608 45.5323 42.5598 32.0318 41.6046C25.7273 41.1588 19.6776 40.9041 14.0736 40.9041C9.55222 40.8404 5.09451 41.0315 0.57312 41.4772V46.0623C0.57312 46.0623 11.9084 44.9797 32.6686 45.4892C61.7074 46.2534 69.795 50.0743 94.8219 49.6922C124.37 49.1827 127.682 46.2534 127.873 45.935C125.58 46.9539 119.276 48.6096 103.61 48.6096C100.744 48.6096 97.4965 48.5459 94.0577 48.4822Z" fill="#F1FAEE"/>
</g>
<defs>
<clipPath id="clip0">
<rect width="128" height="49.6716" fill="white" transform="translate(0 0.784698)"/>
</clipPath>
</defs>
</svg>
