<svg width="64" height="58" viewBox="0 0 64 58" fill="none" xmlns="http://www.w3.org/2000/svg">
<path fill-rule="evenodd" clip-rule="evenodd" d="M28.8816 55.3078C28.8816 55.3078 29.9821 56.7041 32.1233 56.7041C34.2655 56.7041 35.366 55.3078 35.366 55.3078C37.1257 55.2313 50.8784 55.2696 50.8784 55.2696L52.2173 43.9682C52.2173 43.9682 60.6879 37.9975 61.3764 37.309C65.4424 18.8634 50.7459 1.27866 32.1238 1.27866C13.5018 1.27866 -1.19473 18.8634 2.87123 37.309C3.55981 37.9975 12.0304 43.9682 12.0304 43.9682L13.3693 55.2696C13.3693 55.2696 27.1219 55.2313 28.8816 55.3078ZM30.8438 6.89407L32.1432 39.5168L33.42 6.89407C34.9872 6.57424 38.9851 6.95804 41.1279 8.55719L34.8912 39.6447L43.3987 9.83651C45.4382 9.81151 49.5536 13.2599 49.8593 14.2822L37.4499 40.7321L51.3945 16.5529C52.7698 17.0647 55.7762 22.5977 55.2964 23.2406L39.7527 42.2673L55.7442 26.0199C55.7442 26.0199 57.8231 29.1862 56.4674 34.5494L47.4346 41.0725L46.3038 49.9843H35.2293C35.2293 49.9843 33.4175 51.7017 32.1319 51.7017C30.8463 51.7017 29.0345 49.9843 29.0345 49.9843H17.96L16.8292 41.0725L7.79645 34.5494C6.44074 29.1862 8.51964 26.0199 8.51964 26.0199L24.5111 42.2673L8.9674 23.2406C8.48765 22.5977 11.4941 17.0647 12.8693 16.5529L26.8139 40.7321L14.4045 14.2822C14.7102 13.2599 18.8256 9.81151 20.8651 9.83651L29.3726 39.6447L23.1359 8.55719C25.2787 6.95804 29.2766 6.57424 30.8438 6.89407Z" fill="#F1FAEE"/>
</svg>
