<svg width="128" height="56" viewBox="0 0 128 56" fill="none" xmlns="http://www.w3.org/2000/svg">
<path fill-rule="evenodd" clip-rule="evenodd" d="M51.9349 41.6504C52.7128 41.6504 53.4841 41.5599 54.2499 41.3778C55.0157 41.1947 55.7031 40.8923 56.31 40.4664C56.918 40.0405 57.4102 39.4932 57.7864 38.8256C58.1638 38.1569 58.3525 37.3359 58.3525 36.3649C58.3525 35.0275 57.8725 33.9638 56.9114 33.1737C55.9514 32.3836 54.4629 31.7823 52.4458 31.3685C51.0356 31.0772 50.0027 30.7174 49.3451 30.2926C48.6896 29.8678 48.3619 29.2543 48.3619 28.4521C48.3619 27.9897 48.4645 27.5892 48.6709 27.2493C48.8783 26.9072 49.152 26.6292 49.4918 26.4107C49.8328 26.1911 50.2212 26.0333 50.6582 25.9362C51.0962 25.8391 51.5343 25.7905 51.9713 25.7905C52.9202 25.7905 53.7644 26.0145 54.5059 26.4636C55.2463 26.9138 55.8002 27.4921 56.1644 28.1961L58.0601 26.7748C57.5018 25.8027 56.6631 25.049 55.5442 24.5138C54.4265 23.9787 53.2711 23.7116 52.0805 23.7116C51.3026 23.7116 50.5489 23.8087 49.8196 24.0029C49.0913 24.1983 48.4402 24.4962 47.8698 24.8967C47.2982 25.2973 46.8425 25.8082 46.5015 26.4283C46.1616 27.0485 45.9917 27.7955 45.9917 28.6705C45.9917 29.4727 46.1495 30.1414 46.4662 30.6755C46.7818 31.2107 47.1834 31.6543 47.6689 32.0063C48.1544 32.3594 48.6841 32.6264 49.2546 32.8085C49.8262 32.9916 50.3669 33.1428 50.8767 33.2642C52.5064 33.6537 53.7522 34.073 54.6151 34.5221C55.478 34.9723 55.9095 35.6476 55.9095 36.5458C55.9095 37.1053 55.7991 37.5732 55.5807 37.9505C55.3622 38.3268 55.0709 38.6369 54.7056 38.8796C54.3415 39.1224 53.9156 39.2934 53.43 39.3905C52.9445 39.4876 52.4336 39.5362 51.8984 39.5362C50.8778 39.5362 49.942 39.2813 49.0913 38.7704C48.2405 38.2595 47.5961 37.6283 47.158 36.8747L45.1895 38.3334C45.9674 39.4755 46.9638 40.3141 48.1798 40.8493C49.3947 41.3834 50.646 41.6504 51.9349 41.6504V41.6504ZM68.2151 41.6504C69.6011 41.6504 70.7862 41.4021 71.7705 40.9034C72.7547 40.4046 73.6353 39.5847 74.4132 38.4427H74.486C74.486 38.9039 74.5103 39.3784 74.5589 39.8639C74.6085 40.3494 74.6692 40.7996 74.742 41.2134H76.9655C76.8684 40.7279 76.7956 40.1321 76.747 39.4258C76.6985 38.7218 76.6742 38.041 76.6742 37.3845V29.9097C76.6742 28.8647 76.5042 27.9533 76.1633 27.1754C75.8234 26.3974 75.3489 25.7541 74.742 25.2432C74.134 24.7323 73.4289 24.3494 72.6267 24.0945C71.8245 23.8396 70.9616 23.7116 70.038 23.7116C68.5793 23.7116 67.2728 23.9434 66.1186 24.4046C64.9644 24.8658 64.0331 25.4496 63.3291 26.1547L64.715 27.7955C65.3219 27.1886 66.0634 26.702 66.9384 26.3367C67.8135 25.9726 68.7625 25.7905 69.7831 25.7905C71.2662 25.7905 72.3961 26.1547 73.174 26.8829C73.952 27.6134 74.3404 28.7191 74.3404 30.2021V30.7483C72.7845 30.7483 71.2838 30.8035 69.8383 30.9138C68.3917 31.022 67.1095 31.2658 65.9906 31.6421C64.8728 32.0184 63.979 32.5911 63.3114 33.3558C62.6427 34.1216 62.3073 35.161 62.3073 36.473C62.3073 37.422 62.4971 38.2231 62.8733 38.8796C63.2507 39.5362 63.7241 40.0714 64.2957 40.4841C64.8662 40.8978 65.4985 41.1947 66.1914 41.3778C66.8844 41.5599 67.5597 41.6504 68.2151 41.6504V41.6504ZM68.8717 39.609C68.3862 39.609 67.9051 39.5538 67.4306 39.4446C66.9561 39.3354 66.5258 39.1533 66.1362 38.8984C65.7478 38.6424 65.4378 38.3081 65.2071 37.8954C64.9754 37.4827 64.8607 36.9718 64.8607 36.3638C64.8607 35.5616 65.1277 34.9183 65.6629 34.4316C66.198 33.9461 66.8844 33.5743 67.723 33.3194C68.5616 33.0645 69.4973 32.8945 70.5302 32.8085C71.563 32.7235 72.5903 32.6816 73.611 32.6816H74.3404V33.9572C74.3404 34.7108 74.219 35.4281 73.9762 36.1089C73.7335 36.7897 73.3804 37.3911 72.9191 37.9141C72.4568 38.4361 71.8852 38.8498 71.2044 39.1533C70.5247 39.4567 69.7467 39.609 68.8717 39.609ZM85.9178 41.2134V13.6493H83.4383V41.2134H85.9178V41.2134ZM99.8642 41.2134L106.792 24.1497H104.13L98.5511 38.5883H98.4783L92.9357 24.1497H90.166L97.1288 41.2134H99.8642V41.2134ZM118.55 41.6504C119.96 41.6504 121.279 41.3712 122.507 40.8118C123.734 40.2534 124.858 39.3298 125.879 38.0421L124.02 36.5823C123.534 37.3602 122.823 38.0476 121.887 38.6424C120.951 39.2383 119.839 39.5362 118.55 39.5362C117.675 39.5362 116.862 39.3718 116.108 39.0441C115.354 38.7152 114.698 38.2716 114.138 37.7133C113.58 37.1538 113.142 36.4973 112.825 35.7436C112.51 34.9911 112.34 34.1878 112.316 33.3381H126.462C126.487 33.1185 126.499 32.9122 126.499 32.718V32.1707C126.499 31.0043 126.323 29.9097 125.97 28.889C125.618 27.8683 125.101 26.9745 124.42 26.2098C123.741 25.4441 122.89 24.8361 121.868 24.3858C120.847 23.9367 119.669 23.7127 118.332 23.7127C117.117 23.7127 115.986 23.9367 114.941 24.3858C113.896 24.8361 112.984 25.4617 112.206 26.2639C111.428 27.0661 110.82 28.014 110.383 29.1086C109.945 30.201 109.727 31.3927 109.727 32.6816C109.727 33.9693 109.952 35.161 110.401 36.2545C110.851 37.3481 111.465 38.2959 112.243 39.0981C113.021 39.9003 113.95 40.5271 115.032 40.9762C116.114 41.4264 117.287 41.6504 118.55 41.6504V41.6504ZM123.983 31.3685H112.353C112.401 30.6402 112.583 29.9406 112.899 29.2719C113.215 28.6032 113.641 28.0085 114.175 27.4854C114.71 26.9624 115.33 26.5497 116.034 26.2463C116.74 25.9417 117.505 25.7905 118.332 25.7905C120.106 25.7905 121.473 26.3191 122.434 27.3762C123.394 28.4333 123.911 29.7641 123.983 31.3685ZM14.1053 39.7414C14.1053 39.7414 10.0833 37.2212 10.0833 34.6987C10.0833 33.5864 10.9815 32.6871 12.0938 32.6871C13.206 32.6871 14.1053 33.5864 14.1053 34.6987C14.1053 33.5864 15.0036 32.6871 16.1158 32.6871C17.2259 32.6871 18.1274 33.5864 18.1274 34.6987C18.1274 37.2212 14.1053 39.7414 14.1053 39.7414V39.7414ZM14.1053 26.6325C8.99086 26.6325 4.84631 30.777 4.84631 35.8904C4.84631 41.0027 8.99086 45.1505 14.1042 45.1505C19.2187 45.1505 23.3644 41.0027 23.3644 35.8915C23.3644 30.777 19.2187 26.6325 14.1053 26.6325" fill="#8665E3"/>
<path fill-rule="evenodd" clip-rule="evenodd" d="M14.1352 49.9881C6.34262 49.9881 0 43.6631 0 35.8915C0 32.1111 1.47531 28.5668 4.15559 25.9064C4.55503 25.5125 5.19503 25.5136 5.59007 25.913C5.9851 26.3103 5.98069 26.9503 5.58455 27.3453C3.29159 29.6228 2.02814 32.6573 2.02814 35.8915C2.02814 42.5464 7.46041 47.961 14.1363 47.961C20.779 47.961 26.1837 42.5464 26.1837 35.8915C26.1837 29.913 21.8957 25.657 14.4154 24.2148C8.72938 23.118 5.84607 20.1961 5.84607 15.5307C5.84607 10.9624 9.56469 7.24378 14.1363 7.24158C16.3498 7.24158 18.4342 8.10668 19.9989 9.67247C20.3939 10.0697 20.3939 10.7097 19.9978 11.107C19.6028 11.502 18.9617 11.502 18.5644 11.1047C17.3815 9.92185 15.8102 9.26861 14.1363 9.26861C10.6825 9.26861 7.8731 12.0802 7.8731 15.5318C7.8731 17.8303 8.59255 21.027 14.8006 22.2231C23.1978 23.8441 28.2108 28.9541 28.2108 35.8915C28.2108 43.6631 21.8979 49.9881 14.1363 49.9881" fill="#8665E3"/>
<path fill-rule="evenodd" clip-rule="evenodd" d="M18.1297 15.5351C18.1297 17.7596 16.3267 19.5616 14.1043 19.5616C11.8798 19.5616 10.0767 17.7596 10.0767 15.5351C10.0767 13.3105 11.8798 11.5075 14.1043 11.5075C16.3267 11.5075 18.1308 13.3105 18.1308 15.5351" fill="#8665E3"/>
</svg>
