<svg width="64" height="59" viewBox="0 0 64 59" fill="none" xmlns="http://www.w3.org/2000/svg">
<path fill-rule="evenodd" clip-rule="evenodd" d="M32.1233 57.4351C29.9821 57.4351 28.8816 56.0388 28.8816 56.0388C27.1219 55.9623 13.3693 56.0005 13.3693 56.0005L12.0304 44.6991C12.0304 44.6991 3.55981 38.7285 2.87123 38.0399C-1.19473 19.5944 13.5018 2.0096 32.1238 2.0096C50.7459 2.0096 65.4424 19.5944 61.3764 38.0399C60.6879 38.7285 52.2173 44.6991 52.2173 44.6991L50.8784 56.0005C50.8784 56.0005 37.1257 55.9623 35.366 56.0388C35.366 56.0388 34.2655 57.4351 32.1233 57.4351Z" fill="#F1FAEE"/>
<path fill-rule="evenodd" clip-rule="evenodd" d="M32.1432 40.2477L30.8438 7.62501C29.2766 7.30518 25.2787 7.68898 23.1359 9.28813L29.3726 40.3756L20.8651 10.5675C18.8256 10.5425 14.7102 13.9908 14.4045 15.0131L26.8139 41.463L12.8693 17.2839C11.4941 17.7956 8.48765 23.3287 8.9674 23.9716L24.5111 42.9982L8.51964 26.7509C8.51964 26.7509 6.44074 29.9172 7.79645 35.2804L16.8292 41.8034L17.96 50.7152H29.0345C29.0345 50.7152 30.8463 52.4326 32.1319 52.4326C33.4175 52.4326 35.2293 50.7152 35.2293 50.7152H46.3038L47.4346 41.8034L56.4674 35.2804C57.8231 29.9172 55.7442 26.7509 55.7442 26.7509L39.7527 42.9982L55.2964 23.9716C55.7762 23.3287 52.7698 17.7956 51.3945 17.2839L37.4499 41.463L49.8593 15.0131C49.5536 13.9908 45.4382 10.5425 43.3987 10.5675L34.8912 40.3756L41.1279 9.28813C38.9851 7.68898 34.9872 7.30518 33.42 7.62501L32.1432 40.2477Z" fill="#1D3557"/>
</svg>
